# xmcd
#
# Track frame offsets: 
#        150
#        19325
#        39438
#        59388
#        80150
#        99250
#        120575
#        139900
#        157913
#        175663
#
# Disc length: 2582 seconds
#
# Revision: 1
# Processed by: cddbd v1.5.2PL0 Copyright (c) Steve Scherf et al.
# Submitted via: ExactAudioCopy v1.0b3
#
DISCID=7a0a140a
DTITLE=吳奇隆 - My Summer Dream
DYEAR=1994
DGENRE=Pop
TTITLE0=My Summer Dream
TTITLE1=不羈的女人
TTITLE2=是我惹的禍
TTITLE3=妳說我不該
TTITLE4=怎平靜
TTITLE5=回頭望著你
TTITLE6=在所不計
TTITLE7=只因愛著妳
TTITLE8=願你說謊
TTITLE9=梁祝
EXTD=
EXTT0=
EXTT1=
EXTT2=
EXTT3=
EXTT4=
EXTT5=
EXTT6=
EXTT7=
EXTT8=
EXTT9=
PLAYORDER=
